<svg xmlns="http://www.w3.org/2000/svg" width="960" height="540" viewBox="0 0 960 540" role="img" aria-label="Surgical Video Finder UI preview">
  <defs>
    <linearGradient id="bg" x1="0" y1="0" x2="1" y2="1">
      <stop offset="0%" stop-color="#0f172a"/>
      <stop offset="100%" stop-color="#111827"/>
    </linearGradient>
  </defs>
  <rect width="960" height="540" fill="url(#bg)"/>
  <rect x="24" y="24" width="912" height="72" rx="12" fill="#1e293b" stroke="#334155"/>
  <text x="48" y="58" fill="#f8fafc" font-family="system-ui,sans-serif" font-size="22" font-weight="700">Surgical Video Finder</text>
  <text x="48" y="80" fill="#94a3b8" font-family="system-ui,sans-serif" font-size="13">Search pathologies and procedures, then find surgical videos</text>
  <rect x="820" y="44" width="44" height="32" rx="8" fill="#38bdf8"/>
  <rect x="872" y="44" width="44" height="32" rx="8" fill="#1e293b" stroke="#334155"/>
  <text x="836" y="65" fill="#0f172a" font-family="system-ui,sans-serif" font-size="13" font-weight="700">EN</text>
  <text x="886" y="65" fill="#cbd5e1" font-family="system-ui,sans-serif" font-size="13">RO</text>

  <rect x="24" y="116" width="560" height="180" rx="12" fill="#1e293b" stroke="#334155"/>
  <rect x="44" y="140" width="360" height="36" rx="8" fill="#0f172a" stroke="#475569"/>
  <text x="58" y="163" fill="#64748b" font-family="system-ui,sans-serif" font-size="14">appendectomy</text>
  <rect x="44" y="192" width="520" height="44" rx="8" fill="#0f172a" stroke="#38bdf8"/>
  <text x="58" y="220" fill="#f8fafc" font-family="system-ui,sans-serif" font-size="15">Appendectomy</text>
  <text x="470" y="220" fill="#38bdf8" font-family="system-ui,sans-serif" font-size="13">Add</text>

  <rect x="600" y="116" width="336" height="180" rx="12" fill="#1e293b" stroke="#334155"/>
  <text x="620" y="146" fill="#f8fafc" font-family="system-ui,sans-serif" font-size="16" font-weight="600">Selected terms</text>
  <rect x="620" y="162" width="140" height="30" rx="15" fill="#0f172a" stroke="#38bdf8"/>
  <text x="636" y="182" fill="#e2e8f0" font-family="system-ui,sans-serif" font-size="13">Appendectomy</text>
  <rect x="620" y="206" width="120" height="34" rx="8" fill="#38bdf8"/>
  <text x="638" y="228" fill="#0f172a" font-family="system-ui,sans-serif" font-size="13" font-weight="700">Find videos</text>

  <rect x="24" y="316" width="912" height="200" rx="12" fill="#1e293b" stroke="#334155"/>
  <text x="44" y="346" fill="#f8fafc" font-family="system-ui,sans-serif" font-size="16" font-weight="600">Videos &amp; articles</text>
  <rect x="44" y="364" width="180" height="120" rx="10" fill="#0f172a" stroke="#334155"/>
  <rect x="44" y="364" width="180" height="68" rx="10" fill="#111827"/>
  <polygon points="114,392 104,412 124,412" fill="#38bdf8"/>
  <text x="54" y="452" fill="#e2e8f0" font-family="system-ui,sans-serif" font-size="12">Lap Appendectomy</text>
  <rect x="54" y="460" width="48" height="18" rx="4" fill="#1e293b" stroke="#38bdf8"/>
  <text x="62" y="473" fill="#38bdf8" font-family="system-ui,sans-serif" font-size="10">Play</text>

  <rect x="240" y="364" width="180" height="120" rx="10" fill="#0f172a" stroke="#334155"/>
  <rect x="240" y="364" width="180" height="68" rx="10" fill="#111827"/>
  <text x="318" y="406" fill="#94a3b8" font-family="system-ui,sans-serif" font-size="28">¶</text>
  <text x="250" y="452" fill="#e2e8f0" font-family="system-ui,sans-serif" font-size="12">Vimeo: Operative video</text>

  <rect x="436" y="364" width="180" height="120" rx="10" fill="#0f172a" stroke="#334155"/>
  <text x="506" y="420" fill="#94a3b8" font-family="system-ui,sans-serif" font-size="34">=Ä</text>
  <text x="446" y="452" fill="#e2e8f0" font-family="system-ui,sans-serif" font-size="12">PubMed article</text>
  <text x="446" y="472" fill="#38bdf8" font-family="system-ui,sans-serif" font-size="10">Read article</text>
</svg>
